<?xml version="1.0" standalone="no"?>
<!DOCTYPE svg PUBLIC "-//W3C//DTD SVG 20010904//EN"
 "http://www.w3.org/TR/2001/REC-SVG-20010904/DTD/svg10.dtd">
<svg version="1.0" xmlns="http://www.w3.org/2000/svg"
 width="300.000000pt" height="137.000000pt" viewBox="0 0 300.000000 137.000000"
 preserveAspectRatio="xMidYMid meet">
<metadata>
Created by potrace 1.10, written by Peter Selinger 2001-2011
</metadata>
<g transform="translate(0.000000,137.000000) scale(0.100000,-0.100000)"
fill="#000000" stroke="none">
<path d="M1118 894 c-26 -8 -50 -19 -53 -24 -3 -6 -18 -10 -33 -10 -28 0 -96
-31 -121 -55 -7 -7 -11 -21 -8 -30 6 -14 9 -14 38 0 22 12 30 22 26 35 -4 14
3 22 26 29 48 17 49 14 12 -36 -20 -27 -50 -68 -68 -93 -23 -31 -40 -45 -57
-45 -31 0 -37 21 -8 28 18 5 20 9 10 19 -9 9 -15 8 -27 -8 -20 -26 -19 -41 5
-54 35 -19 75 13 140 110 33 50 67 90 75 90 41 0 20 -68 -25 -76 -16 -4 -30
-10 -30 -15 0 -23 70 9 94 43 21 30 20 35 -11 52 l-28 14 30 7 c17 3 40 8 53
11 12 2 22 9 22 14 0 12 -4 12 -62 -6z m-164 -89 c-7 -16 -44 -41 -44 -29 0
11 32 44 41 44 5 0 6 -7 3 -15z"/>
<path d="M1641 834 c-48 -26 -86 -31 -97 -12 -5 8 0 9 14 6 12 -4 25 -2 28 3
9 15 -43 10 -56 -6 -10 -12 -7 -15 14 -21 14 -3 41 -3 60 0 33 6 34 6 40 -34
4 -27 1 -50 -8 -69 -17 -32 -34 -41 -77 -41 -33 0 -39 20 -12 41 10 8 14 9 10
2 -4 -6 -3 -15 3 -18 15 -9 60 22 60 40 0 26 -46 17 -81 -16 l-33 -31 24 -20
c33 -27 86 -17 124 24 25 27 28 36 24 79 -5 45 -3 49 17 49 26 0 42 29 23 42
-19 11 -28 9 -77 -18z m72 1 c1 -5 -10 -11 -25 -13 -16 -2 -28 1 -28 7 0 20
49 26 53 6z m-124 -126 c-9 -17 -13 -19 -20 -8 -5 8 -3 16 4 21 22 14 28 8 16
-13z"/>
<path d="M1245 821 c-3 -6 -23 -11 -43 -11 -46 0 -47 -1 -106 -79 -61 -80 -70
-108 -19 -56 22 22 39 43 39 46 -1 3 10 22 24 42 23 33 28 36 60 31 26 -4 40
-1 49 10 8 9 11 19 8 22 -3 3 -8 1 -12 -5z"/>
<path d="M1885 821 c-3 -6 -23 -11 -43 -11 -47 0 -48 -1 -110 -84 -61 -81 -68
-108 -13 -51 21 22 37 43 37 46 -1 3 10 22 24 42 23 33 28 36 60 31 26 -4 40
-1 49 10 8 9 11 19 8 22 -3 3 -8 1 -12 -5z"/>
<path d="M1345 760 c-10 -11 -28 -21 -39 -21 -17 -1 -18 -2 -4 -6 16 -4 15 -8
-8 -38 -41 -54 -8 -78 37 -28 17 20 18 23 3 10 -35 -29 -46 -19 -18 18 14 19
36 36 48 36 17 1 18 2 3 6 -14 4 -16 8 -6 19 19 23 4 26 -16 4z"/>
<path d="M1140 730 c-8 -5 -11 -10 -7 -10 5 0 -1 -14 -13 -31 -12 -16 -20 -33
-17 -36 9 -8 39 6 33 15 -3 5 4 19 16 31 22 24 13 47 -12 31z"/>
<path d="M1865 728 c-25 -15 -54 -49 -55 -65 0 -8 13 -11 40 -9 38 3 70 16 40
16 -9 0 -5 9 9 24 13 14 32 24 42 23 25 -2 24 -6 -8 -39 -21 -22 -23 -28 -10
-28 9 0 28 16 43 35 21 28 29 33 40 24 11 -9 14 -8 14 4 0 14 -17 17 -93 18
-9 0 -33 -16 -52 -37 -19 -20 -38 -34 -42 -30 -4 3 9 22 27 41 36 37 37 41 5
23z"/>
<path d="M2039 708 c-44 -47 -23 -90 26 -54 18 13 18 14 -9 9 -22 -4 -27 -2
-24 8 3 8 17 14 31 14 33 1 52 18 44 39 -10 25 -36 19 -68 -16z m51 7 c0 -9
-9 -15 -22 -15 -22 1 -23 1 -4 15 25 19 26 19 26 0z"/>
<path d="M1193 710 c-27 -24 -20 -60 11 -60 28 0 71 44 63 64 -9 22 -49 20
-74 -4z m53 -3 c22 8 16 -14 -8 -31 -29 -21 -38 -20 -38 2 0 21 23 48 28 33 2
-5 10 -7 18 -4z"/>
<path d="M1388 716 c-10 -7 -18 -25 -18 -40 0 -21 5 -26 23 -26 29 0 72 43 64
64 -8 19 -46 20 -69 2z m48 -9 c22 8 16 -14 -8 -31 -29 -21 -38 -20 -38 2 0
21 23 48 28 33 2 -5 10 -7 18 -4z"/>
<path d="M1773 724 c4 -4 -3 -20 -14 -36 -23 -31 -20 -44 7 -34 9 4 14 9 11
13 -4 3 3 19 14 34 l20 29 -22 0 c-12 0 -19 -3 -16 -6z"/>
</g>
</svg>
