<?xml version="1.0" standalone="no"?>
<!DOCTYPE svg PUBLIC "-//W3C//DTD SVG 20010904//EN"
 "http://www.w3.org/TR/2001/REC-SVG-20010904/DTD/svg10.dtd">
<svg version="1.0" xmlns="http://www.w3.org/2000/svg"
 width="1093.000000pt" height="445.000000pt" viewBox="0 0 1093.000000 445.000000"
 preserveAspectRatio="xMidYMid meet">

<g transform="translate(0.000000,445.000000) scale(0.100000,-0.100000)"
fill="#000000" stroke="none">
<path d="M6349 3685 c-4 -3 -28 -11 -55 -18 -37 -9 -52 -19 -62 -39 -7 -15
-23 -35 -35 -45 -13 -10 -26 -26 -30 -36 -4 -9 -15 -20 -24 -24 -10 -3 -26
-13 -35 -21 -24 -20 -154 1 -168 29 -6 10 -16 19 -22 19 -5 0 -25 13 -43 29
-30 26 -42 30 -127 35 -206 12 -395 -13 -421 -56 -16 -24 10 -121 42 -158 20
-23 39 -33 80 -40 96 -18 139 -13 167 17 33 36 27 63 -18 88 l-36 19 -50 -23
c-57 -27 -72 -22 -72 20 0 25 6 33 35 45 46 19 185 19 232 -1 19 -8 46 -15 60
-15 13 0 47 -16 76 -35 47 -32 58 -35 124 -35 40 0 73 -2 73 -4 0 -15 -76
-136 -98 -156 -26 -25 -36 -42 -61 -103 -6 -15 -21 -31 -35 -36 -13 -5 -26
-18 -29 -28 -4 -10 -16 -33 -27 -52 -12 -19 -20 -46 -20 -60 3 -41 1 -51 -11
-51 -19 0 -99 -74 -99 -91 0 -10 -10 -30 -23 -46 -13 -15 -34 -45 -46 -66 -12
-20 -30 -43 -40 -50 -10 -6 -25 -41 -35 -77 -10 -36 -26 -78 -36 -95 -10 -16
-23 -46 -29 -66 -20 -62 -111 -129 -125 -92 -10 26 -6 77 7 103 35 66 25 220
-18 298 -28 50 -32 84 -11 102 24 19 37 73 40 162 2 46 11 111 20 146 17 66
14 84 -22 125 -20 22 -39 22 -87 -3 -44 -22 -108 -25 -170 -9 -23 7 -105 10
-190 9 -114 -1 -167 2 -218 15 -100 25 -209 5 -275 -50 -38 -31 -40 -55 -10
-98 29 -43 90 -107 101 -107 6 0 15 -8 22 -17 10 -14 34 -18 128 -21 100 -3
124 -1 177 19 59 21 110 65 110 94 0 60 -66 62 -180 5 -50 -25 -93 -40 -116
-40 -47 0 -124 38 -137 68 -9 20 -7 27 13 43 14 11 36 25 50 31 34 14 372 19
438 7 91 -18 142 -102 109 -182 -8 -17 -19 -55 -26 -84 -7 -29 -19 -57 -27
-64 -8 -6 -14 -20 -14 -30 0 -11 -9 -28 -20 -39 -11 -11 -23 -35 -27 -53 -3
-18 -11 -39 -18 -47 -7 -8 -16 -25 -19 -37 -4 -13 -11 -23 -17 -23 -5 0 -23
-28 -40 -61 -17 -35 -39 -63 -50 -66 -10 -3 -19 -9 -19 -13 0 -4 -13 -27 -30
-51 -16 -24 -30 -57 -30 -72 0 -30 -28 -89 -57 -122 -54 -60 -160 -81 -255
-50 -77 26 -98 37 -98 52 0 8 -20 33 -45 57 -30 30 -45 53 -45 70 0 30 7 32
34 11 23 -18 77 -20 93 -4 15 15 -2 75 -33 117 -28 36 -65 42 -98 17 -11 -8
-27 -15 -35 -16 -32 -1 -63 -56 -63 -110 0 -55 15 -84 79 -149 19 -19 46 -50
61 -68 22 -26 42 -37 102 -52 120 -31 276 -22 323 18 9 8 27 20 39 26 13 6 27
25 32 41 4 17 12 37 17 45 5 8 27 52 49 97 22 45 51 90 64 100 13 11 38 46 54
80 17 33 45 81 62 106 16 25 30 53 30 63 1 29 76 159 93 162 13 3 14 -2 5 -32
-8 -27 -7 -49 6 -101 17 -70 15 -112 -10 -178 -8 -23 -14 -75 -14 -134 0 -91
2 -99 27 -125 28 -30 33 -75 12 -114 -6 -13 -9 -34 -5 -49 7 -26 9 -27 64 -23
45 4 64 11 90 33 17 16 32 39 32 51 0 15 10 26 30 34 17 7 30 16 30 19 0 4 27
36 61 72 33 35 65 73 70 84 5 11 21 35 35 54 13 19 27 46 30 60 3 14 9 33 15
41 12 19 24 47 36 87 14 41 105 165 115 155 12 -12 -48 -158 -96 -237 -32 -51
-46 -86 -52 -130 -11 -82 -8 -234 6 -259 13 -25 86 -66 116 -66 12 0 27 -6 33
-14 14 -17 94 -36 149 -36 53 0 106 46 127 109 11 33 28 58 55 80 29 23 40 39
40 59 0 37 -26 72 -54 72 -25 0 -56 -28 -56 -51 0 -8 -8 -22 -17 -30 -44 -39
-68 -77 -73 -114 -4 -33 -10 -41 -34 -50 -24 -8 -31 -7 -40 10 -6 10 -26 33
-43 49 -29 26 -33 36 -33 78 0 64 27 180 57 245 15 34 21 61 17 78 -4 18 2 37
25 71 45 68 71 146 88 259 8 55 21 112 29 127 17 32 18 71 3 112 -10 28 -8 37
22 87 19 31 49 69 67 84 l32 27 78 -21 c80 -21 219 -29 238 -13 5 5 36 19 69
32 76 29 92 47 100 115 7 53 6 57 -29 99 -29 36 -44 45 -78 50 -76 11 -193 18
-199 11z m97 -80 c5 -7 22 -17 36 -20 27 -7 45 -51 27 -69 -5 -6 -4 -15 3 -24
13 -15 0 -26 -57 -49 -63 -24 -215 7 -215 45 0 14 93 111 125 130 23 14 65 7
81 -13z m-1246 -655 c0 -11 -4 -20 -10 -20 -5 0 -10 9 -10 20 0 11 5 20 10 20
6 0 10 -9 10 -20z"/>
<path d="M1595 3653 c-16 -2 -69 -18 -116 -34 -48 -16 -96 -29 -108 -29 -40 0
-194 -91 -248 -147 -46 -47 -57 -54 -80 -49 -52 12 -242 -29 -323 -69 -166
-80 -285 -167 -317 -228 -9 -18 -26 -43 -39 -56 -40 -40 -27 -113 25 -148 60
-40 129 -31 241 31 14 8 37 20 52 26 28 13 37 31 62 117 l15 52 -30 26 c-37
30 -52 31 -95 4 -33 -20 -45 -51 -24 -64 37 -23 -28 -117 -96 -141 -21 -7 -40
-11 -42 -9 -2 2 -5 26 -5 53 -1 44 3 54 34 85 19 20 46 48 60 64 71 77 116
106 258 160 96 36 191 56 191 39 0 -12 -43 -76 -51 -76 -5 0 -9 -6 -9 -14 0
-7 -7 -19 -16 -27 -9 -8 -13 -21 -10 -35 4 -16 0 -27 -15 -38 -12 -8 -19 -21
-16 -29 3 -8 -1 -24 -9 -35 -8 -11 -11 -27 -8 -35 3 -8 1 -18 -5 -22 -6 -3
-11 -21 -11 -40 0 -22 -8 -41 -21 -54 -22 -20 -59 -135 -59 -182 0 -15 -6 -32
-14 -38 -8 -7 -18 -41 -21 -77 -5 -43 -12 -64 -21 -64 -7 0 -18 -19 -24 -42
-6 -24 -14 -51 -17 -61 -3 -11 -23 -44 -44 -75 -21 -30 -39 -60 -39 -66 0 -19
-74 -58 -135 -72 -19 -5 -119 61 -137 90 -4 6 -8 35 -8 65 l0 54 23 -21 c29
-27 83 -30 91 -4 16 56 16 108 -2 128 -28 33 -132 61 -132 35 0 -5 -9 -11 -20
-14 -11 -3 -20 -14 -20 -25 0 -11 -10 -41 -21 -67 -40 -90 -4 -206 76 -249 17
-9 44 -25 60 -35 17 -11 40 -20 52 -20 12 -1 25 -6 29 -12 4 -8 33 -9 93 -4
84 7 141 25 141 45 0 6 8 10 19 10 10 0 26 11 35 25 9 14 34 37 56 51 26 17
40 34 40 48 0 25 56 164 75 186 8 8 16 48 18 88 3 39 11 82 19 94 8 13 20 44
28 71 7 26 17 50 21 53 5 3 13 23 19 45 6 22 20 49 31 60 16 16 17 23 9 40
-12 21 -5 59 11 59 5 0 9 11 9 24 0 14 5 28 10 31 6 3 10 17 10 31 0 13 5 24
10 24 6 0 10 14 10 31 0 38 48 127 73 135 60 19 157 -30 157 -79 0 -13 3 -26
6 -30 3 -3 6 -47 6 -99 0 -93 -8 -158 -21 -158 -4 0 -27 -18 -51 -40 -24 -22
-53 -41 -65 -42 -11 0 -36 -2 -55 -3 -77 -3 -90 -5 -90 -18 0 -18 31 -80 44
-89 21 -14 65 -8 78 11 8 11 47 31 88 45 41 14 83 34 94 44 12 10 42 31 68 46
57 32 122 134 133 209 11 69 -25 160 -74 191 -53 33 -177 66 -246 66 l-60 0
40 35 c22 19 49 37 60 41 11 3 31 16 45 28 31 28 165 61 211 53 20 -4 50 -1
74 8 22 8 57 14 77 15 41 0 54 19 43 63 -5 20 -15 26 -52 31 -47 6 -56 6 -108
-1z"/>
<path d="M2265 3200 c-3 -5 -4 -14 0 -20 19 -30 -31 -93 -58 -72 -7 5 -38 17
-69 26 -106 30 -299 2 -357 -53 -17 -16 -38 -31 -46 -35 -15 -5 -19 -23 -15
-59 0 -9 -12 -46 -29 -81 -16 -35 -37 -90 -46 -122 -10 -32 -28 -73 -41 -91
-13 -17 -24 -41 -24 -53 0 -30 -28 -89 -57 -121 -13 -14 -23 -30 -21 -35 2 -5
-7 -25 -18 -44 -13 -20 -24 -62 -28 -100 -4 -36 -14 -76 -23 -88 -19 -31 -10
-68 19 -76 52 -14 84 -6 115 27 39 40 101 158 114 217 13 57 44 107 72 116 12
4 24 10 27 13 12 15 91 73 95 69 2 -2 -9 -30 -25 -62 -17 -32 -30 -65 -30 -73
0 -7 -11 -36 -25 -64 -18 -34 -26 -68 -28 -110 -2 -55 0 -63 26 -85 33 -28
101 -33 147 -9 33 17 70 65 70 90 0 18 -21 18 -64 0 -18 -8 -18 -7 -2 17 21
32 46 115 46 154 0 19 8 38 21 50 34 31 41 61 23 96 -19 37 -52 67 -74 68 -28
0 -135 -31 -138 -40 -5 -14 -72 -53 -80 -46 -3 4 1 21 10 39 25 50 48 132 48
171 0 20 4 36 9 36 5 0 21 33 36 73 15 39 30 81 35 92 4 11 11 28 14 37 2 9
13 21 24 27 15 8 26 4 54 -24 45 -41 116 -59 218 -53 68 4 74 6 101 38 16 19
36 43 45 53 21 25 30 83 14 102 -14 17 -75 20 -85 5z"/>
<path d="M3062 2890 c-13 -16 -27 -30 -32 -30 -12 0 -50 -37 -50 -48 0 -4 -12
-21 -28 -38 -20 -22 -45 -34 -96 -47 -77 -19 -116 -40 -116 -62 0 -17 52 -20
113 -6 40 10 48 0 23 -28 -7 -9 -24 -56 -36 -106 -13 -49 -27 -94 -32 -99 -4
-6 -8 -19 -8 -31 0 -12 -4 -25 -8 -31 -17 -18 -32 -92 -26 -123 8 -39 45 -67
108 -81 38 -8 59 -7 116 9 78 22 124 52 138 92 6 15 24 41 41 58 56 57 39 121
-31 121 -25 0 -31 -7 -53 -56 -14 -31 -25 -66 -25 -79 0 -31 -31 -56 -79 -62
-40 -6 -48 0 -42 31 1 5 -3 12 -9 16 -9 5 -7 17 6 41 10 19 18 36 19 39 0 3
10 19 23 37 12 17 22 33 22 36 0 3 5 18 11 34 7 15 13 37 14 48 5 36 32 126
42 136 11 11 71 13 141 4 l53 -8 -3 34 -3 34 -83 3 -83 3 6 32 c4 18 13 39 21
48 8 8 14 23 14 32 0 9 5 19 10 22 16 10 12 42 -6 49 -31 12 -51 6 -72 -24z"/>
<path d="M9492 2890 c-13 -16 -27 -30 -32 -30 -12 0 -50 -37 -50 -48 0 -4 -12
-21 -28 -38 -20 -22 -45 -34 -96 -47 -77 -19 -116 -40 -116 -62 0 -17 52 -20
113 -6 40 10 48 0 23 -28 -7 -9 -24 -56 -36 -106 -13 -49 -27 -94 -32 -99 -4
-6 -8 -19 -8 -31 0 -12 -4 -25 -8 -31 -17 -18 -32 -92 -26 -123 8 -39 45 -67
108 -81 38 -8 59 -7 116 9 78 22 124 52 138 92 6 15 24 41 41 58 56 57 39 121
-31 121 -25 0 -31 -7 -53 -56 -14 -31 -25 -66 -25 -79 0 -31 -31 -56 -79 -62
-40 -6 -48 0 -42 31 1 5 -3 12 -9 16 -9 5 -7 17 6 41 10 19 18 36 19 39 0 3
10 19 23 37 12 17 22 33 22 36 0 3 5 18 11 34 7 15 13 37 14 48 5 36 32 126
42 136 11 11 71 13 141 4 l53 -8 -3 34 -3 34 -83 3 -83 3 6 32 c4 18 13 39 21
48 8 8 14 23 14 32 0 9 5 19 10 22 16 10 12 42 -6 49 -31 12 -51 6 -72 -24z"/>
<path d="M8660 2701 c-79 -41 -136 -63 -183 -68 -54 -7 -72 -27 -41 -50 20
-15 101 -11 135 7 12 7 19 6 22 -4 5 -13 -30 -121 -57 -174 -7 -15 -17 -45
-21 -67 -10 -57 -17 -62 -80 -57 l-55 4 0 -30 c0 -65 62 -86 179 -61 66 14
114 71 147 175 28 86 48 121 75 129 11 4 27 15 37 24 21 22 72 56 72 48 0 -31
-28 -123 -51 -170 -20 -39 -30 -74 -31 -109 -1 -47 2 -54 36 -85 37 -34 79
-43 116 -23 21 12 110 117 110 131 0 5 -21 9 -46 9 -42 0 -45 1 -39 23 4 12
17 40 30 62 12 22 25 58 29 80 4 22 14 60 22 84 21 63 -6 131 -51 131 -25 0
-142 -58 -198 -97 -27 -19 -51 -32 -53 -30 -8 8 7 57 17 57 17 0 9 22 -20 51
-34 34 -53 36 -101 10z"/>
<path d="M10030 2711 c-58 -12 -106 -40 -120 -69 -7 -15 -21 -44 -32 -65 -17
-33 -18 -42 -7 -75 14 -42 58 -102 75 -102 14 0 25 -48 12 -56 -4 -3 -6 -10
-2 -15 3 -5 -13 -28 -35 -51 -39 -38 -44 -40 -87 -35 -46 5 -84 29 -84 54 0
15 16 17 25 3 3 -5 19 -10 35 -10 40 0 61 33 55 85 -8 58 -42 89 -102 89 l-47
1 -27 -55 c-16 -32 -28 -73 -28 -96 -1 -36 4 -46 38 -77 80 -72 243 -76 316
-6 5 5 19 9 30 9 20 0 75 50 75 68 0 4 11 24 25 44 14 20 25 50 25 66 0 32
-36 92 -82 135 -37 34 -36 74 4 97 36 20 61 5 69 -41 8 -51 16 -59 59 -59 39
0 50 11 50 52 0 28 -36 75 -70 93 -35 18 -123 26 -170 16z"/>
<path d="M8073 2701 c-23 -4 -50 -13 -60 -21 -48 -37 -93 -86 -93 -102 0 -10
-4 -18 -10 -18 -5 0 -10 -18 -10 -39 0 -22 -5 -43 -10 -46 -13 -8 -35 -60 -43
-104 -16 -78 40 -169 117 -191 67 -18 220 1 254 32 37 34 82 99 76 109 -9 15
-74 10 -80 -6 -3 -8 -30 -28 -59 -44 -86 -48 -136 -30 -147 54 -3 23 22 115
31 115 3 0 49 -9 101 -20 196 -41 232 -22 225 121 -3 69 -5 75 -36 101 -68 57
-156 77 -256 59z m131 -90 c23 -24 27 -35 24 -76 -2 -30 -9 -52 -18 -58 -19
-11 -118 7 -145 27 -17 12 -17 15 6 60 40 81 85 97 133 47z"/>
<path d="M2364 2680 c-12 -5 -25 -13 -29 -19 -3 -6 -13 -11 -22 -11 -9 0 -43
-27 -75 -60 -33 -33 -63 -60 -67 -60 -11 0 -31 -47 -31 -73 0 -12 6 -32 13
-43 39 -68 57 -105 57 -121 1 -26 31 -59 76 -82 33 -17 54 -20 129 -17 l90 4
36 42 c21 24 43 55 51 69 7 14 27 48 45 75 36 53 41 88 18 142 -14 35 -50 73
-70 74 -5 0 -17 15 -25 33 -14 30 -18 32 -67 32 -29 0 -58 6 -64 13 -15 14
-35 15 -65 2z m56 -119 c5 -11 10 -30 10 -43 0 -31 18 -48 49 -48 27 0 61 26
61 46 0 28 21 23 34 -8 17 -42 10 -93 -18 -123 -11 -13 -37 -41 -57 -63 -21
-22 -47 -46 -60 -53 -21 -11 -26 -9 -52 22 -41 48 -49 74 -51 159 -2 70 0 77
26 103 33 32 44 34 58 8z"/>
<path d="M3474 2680 c-12 -5 -25 -13 -29 -19 -3 -6 -13 -11 -22 -11 -9 0 -43
-27 -75 -60 -33 -33 -63 -60 -67 -60 -11 0 -31 -47 -31 -73 0 -12 6 -32 13
-43 39 -68 57 -105 57 -121 1 -26 31 -59 76 -82 33 -17 54 -20 129 -17 l90 4
36 42 c21 24 43 55 51 69 7 14 27 48 45 75 36 53 41 88 18 142 -14 35 -50 73
-70 74 -5 0 -17 15 -25 33 -14 30 -18 32 -67 32 -29 0 -58 6 -64 13 -15 14
-35 15 -65 2z m56 -119 c5 -11 10 -30 10 -43 0 -31 18 -48 49 -48 27 0 61 26
61 46 0 28 21 23 34 -8 17 -42 10 -93 -18 -123 -11 -13 -37 -41 -57 -63 -21
-22 -47 -46 -60 -53 -21 -11 -26 -9 -52 22 -41 48 -49 74 -51 159 -2 70 0 77
26 103 33 32 44 34 58 8z"/>
<path d="M6494 2680 c-12 -5 -25 -13 -29 -19 -3 -6 -13 -11 -22 -11 -9 0 -43
-27 -75 -60 -33 -33 -63 -60 -67 -60 -11 0 -31 -47 -31 -73 0 -12 6 -32 13
-43 39 -68 57 -105 57 -121 1 -26 31 -59 76 -82 33 -17 54 -20 129 -17 l90 4
36 42 c21 24 43 55 51 69 7 14 27 48 45 75 36 53 41 88 18 142 -14 35 -50 73
-70 74 -5 0 -17 15 -25 33 -14 30 -18 32 -67 32 -29 0 -58 6 -64 13 -15 14
-35 15 -65 2z m56 -119 c5 -11 10 -30 10 -43 0 -31 18 -48 49 -48 27 0 61 26
61 46 0 28 21 23 34 -8 17 -42 10 -93 -18 -123 -11 -13 -37 -41 -57 -63 -21
-22 -47 -46 -60 -53 -21 -11 -26 -9 -52 22 -41 48 -49 74 -51 159 -2 70 0 77
26 103 33 32 44 34 58 8z"/>
<path d="M7095 2674 c-61 -23 -64 -24 -155 -37 -83 -12 -85 -13 -88 -40 l-4
-29 59 5 c32 2 68 7 79 11 20 7 22 3 28 -48 6 -42 4 -59 -7 -70 -8 -8 -20 -36
-27 -63 -7 -26 -16 -52 -20 -58 -4 -5 -10 -22 -14 -37 -4 -19 -14 -29 -31 -33
-14 -3 -36 -7 -50 -10 -30 -6 -32 -25 -5 -50 17 -15 30 -17 91 -11 67 6 74 9
110 47 23 25 39 51 39 66 0 30 15 60 49 95 14 14 42 43 61 63 36 37 69 60 76
53 8 -9 -31 -191 -46 -213 -4 -5 -10 -24 -13 -42 -5 -26 -1 -39 20 -63 22 -27
31 -31 67 -28 39 3 41 4 48 47 4 24 12 49 19 57 6 8 9 20 6 28 -7 17 25 122
41 138 7 7 12 17 12 24 0 13 63 64 79 64 6 0 20 5 31 12 31 20 31 6 0 -56 -22
-43 -30 -73 -30 -112 0 -29 -4 -56 -10 -59 -16 -10 -11 -48 11 -85 28 -45 35
-50 86 -50 35 0 50 7 94 45 29 25 61 58 72 74 l18 29 -31 7 c-25 6 -37 2 -56
-16 -31 -29 -38 -21 -24 30 6 23 8 46 5 51 -10 17 16 83 46 118 35 40 41 108
10 136 -29 26 -122 11 -188 -31 l-52 -33 -16 30 c-13 26 -21 30 -55 30 -22 0
-48 -4 -58 -9 -9 -5 -33 -16 -52 -25 -19 -9 -50 -26 -68 -38 -42 -26 -57 -14
-55 44 3 61 -24 72 -102 42z"/>
</g>
</svg>
